<svg xmlns="http://www.w3.org/2000/svg" viewBox="0 0 400 480" width="400" height="480">
  <defs>
    <pattern id="honeycombB" patternUnits="userSpaceOnUse" width="18" height="15.59" patternTransform="scale(1.2)">
      <polygon points="9,0 18,4.5 18,11.09 9,15.59 0,11.09 0,4.5" fill="none" stroke="#1a6b6a" stroke-width="0.3" opacity="0.06"/>
    </pattern>
    <clipPath id="shieldClip">
      <path d="M 200 20 L 360 80 L 360 260 Q 360 400 200 460 Q 40 400 40 260 L 40 80 Z"/>
    </clipPath>
  </defs>
  <path d="M 200 20 L 360 80 L 360 260 Q 360 400 200 460 Q 40 400 40 260 L 40 80 Z" fill="#fafaf7" stroke="#1a6b6a" stroke-width="4"/>
  <path d="M 200 40 L 340 92 L 340 255 Q 340 380 200 438 Q 60 380 60 255 L 60 92 Z" fill="#fafaf7" stroke="#1a6b6a" stroke-width="1.5"/>
  <rect x="40" y="20" width="320" height="440" fill="url(#honeycombB)" clip-path="url(#shieldClip)"/>
  <circle cx="200" cy="220" r="45" fill="#d4a843" opacity="0.15"/>
  <circle cx="200" cy="220" r="30" fill="#d4a843" opacity="0.1"/>
  <rect x="172" y="210" width="56" height="40" fill="#1a6b6a" rx="2"/>
  <polygon points="160,212 200,180 240,212" fill="#1a6b6a"/>
  <rect x="192" y="230" width="16" height="20" fill="#fafaf7" rx="8 8 0 0"/>
  <rect x="178" y="220" width="10" height="10" fill="#fafaf7" rx="1"/>
  <rect x="212" y="220" width="10" height="10" fill="#fafaf7" rx="1"/>
  <line x1="200" y1="170" x2="200" y2="148" stroke="#d4a843" stroke-width="2" opacity="0.4"/>
  <line x1="175" y1="178" x2="162" y2="160" stroke="#d4a843" stroke-width="2" opacity="0.4"/>
  <line x1="225" y1="178" x2="238" y2="160" stroke="#d4a843" stroke-width="2" opacity="0.4"/>
  <line x1="155" y1="195" x2="138" y2="188" stroke="#d4a843" stroke-width="2" opacity="0.3"/>
  <line x1="245" y1="195" x2="262" y2="188" stroke="#d4a843" stroke-width="2" opacity="0.3"/>
  <path d="M 200 175 Q 210 168 215 155 Q 205 160 200 175" fill="#5a8a6a" opacity="0.6"/>
  <path d="M 200 175 Q 190 168 185 155 Q 195 160 200 175" fill="#5a8a6a" opacity="0.6"/>
  <text x="200" y="115" text-anchor="middle" font-family="'Helvetica Neue', Arial, sans-serif" font-size="36" font-weight="700" fill="#1a6b6a" letter-spacing="10">VINIR</text>
  <text x="200" y="310" text-anchor="middle" font-family="'Helvetica Neue', Arial, sans-serif" font-size="32" font-weight="700" fill="#d4a843" letter-spacing="5">LITTLE BEES</text>
  <text x="200" y="345" text-anchor="middle" font-family="'Helvetica Neue', Arial, sans-serif" font-size="12" fill="#4a6b6a" letter-spacing="2">Supporting Little Bees School, Nairobi</text>
  <line x1="120" y1="275" x2="280" y2="275" stroke="#1a6b6a" stroke-width="1" opacity="0.3"/>
</svg>
